<mxfile host="Electron" modified="2024-04-13T18:09:30.158Z" agent="Mozilla/5.0 (Windows NT 10.0; Win64; x64) AppleWebKit/537.36 (KHTML, like Gecko) draw.io/24.1.0 Chrome/120.0.6099.109 Electron/28.1.0 Safari/537.36" etag="IJf1V7yufKEZmKa7X2W2" version="24.1.0" type="device">
  <diagram name="Page-1" id="0WdBo1ur3ko1ii2hKGB6">
    <mxGraphModel dx="1290" dy="621" grid="1" gridSize="10" guides="1" tooltips="1" connect="1" arrows="1" fold="1" page="1" pageScale="1" pageWidth="850" pageHeight="1100" math="0" shadow="0">
      <root>
        <mxCell id="0" />
        <mxCell id="1" parent="0" />
        <mxCell id="R_3Qw7EAyGwQqeyvs3r--3" value="" style="edgeStyle=orthogonalEdgeStyle;rounded=0;orthogonalLoop=1;jettySize=auto;html=1;" parent="1" source="R_3Qw7EAyGwQqeyvs3r--1" target="R_3Qw7EAyGwQqeyvs3r--2" edge="1">
          <mxGeometry relative="1" as="geometry" />
        </mxCell>
        <mxCell id="R_3Qw7EAyGwQqeyvs3r--1" value="START" style="rounded=1;whiteSpace=wrap;html=1;" parent="1" vertex="1">
          <mxGeometry x="365" y="20" width="120" height="60" as="geometry" />
        </mxCell>
        <mxCell id="R_3Qw7EAyGwQqeyvs3r--5" value="" style="edgeStyle=orthogonalEdgeStyle;rounded=0;orthogonalLoop=1;jettySize=auto;html=1;" parent="1" source="R_3Qw7EAyGwQqeyvs3r--2" target="R_3Qw7EAyGwQqeyvs3r--4" edge="1">
          <mxGeometry relative="1" as="geometry" />
        </mxCell>
        <mxCell id="R_3Qw7EAyGwQqeyvs3r--2" value="number, temp = 0, rem = 0&amp;nbsp;" style="shape=parallelogram;perimeter=parallelogramPerimeter;whiteSpace=wrap;html=1;fixedSize=1;" parent="1" vertex="1">
          <mxGeometry x="323" y="110" width="205" height="60" as="geometry" />
        </mxCell>
        <mxCell id="R_3Qw7EAyGwQqeyvs3r--7" value="" style="edgeStyle=orthogonalEdgeStyle;rounded=0;orthogonalLoop=1;jettySize=auto;html=1;" parent="1" source="R_3Qw7EAyGwQqeyvs3r--4" target="R_3Qw7EAyGwQqeyvs3r--6" edge="1">
          <mxGeometry relative="1" as="geometry" />
        </mxCell>
        <mxCell id="R_3Qw7EAyGwQqeyvs3r--8" value="TRUE" style="edgeLabel;html=1;align=center;verticalAlign=middle;resizable=0;points=[];" parent="R_3Qw7EAyGwQqeyvs3r--7" vertex="1" connectable="0">
          <mxGeometry relative="1" as="geometry">
            <mxPoint as="offset" />
          </mxGeometry>
        </mxCell>
        <mxCell id="R_3Qw7EAyGwQqeyvs3r--4" value="number &amp;gt; 0" style="shape=hexagon;perimeter=hexagonPerimeter2;whiteSpace=wrap;html=1;fixedSize=1;" parent="1" vertex="1">
          <mxGeometry x="365" y="200" width="120" height="80" as="geometry" />
        </mxCell>
        <mxCell id="R_3Qw7EAyGwQqeyvs3r--10" value="" style="edgeStyle=orthogonalEdgeStyle;rounded=0;orthogonalLoop=1;jettySize=auto;html=1;" parent="1" source="R_3Qw7EAyGwQqeyvs3r--6" target="R_3Qw7EAyGwQqeyvs3r--9" edge="1">
          <mxGeometry relative="1" as="geometry" />
        </mxCell>
        <mxCell id="R_3Qw7EAyGwQqeyvs3r--15" value="" style="edgeStyle=orthogonalEdgeStyle;rounded=0;orthogonalLoop=1;jettySize=auto;html=1;" parent="1" source="R_3Qw7EAyGwQqeyvs3r--6" target="R_3Qw7EAyGwQqeyvs3r--14" edge="1">
          <mxGeometry relative="1" as="geometry" />
        </mxCell>
        <mxCell id="R_3Qw7EAyGwQqeyvs3r--6" value="rem = number % 10" style="rounded=0;whiteSpace=wrap;html=1;" parent="1" vertex="1">
          <mxGeometry x="346.88" y="360" width="157.25" height="60" as="geometry" />
        </mxCell>
        <mxCell id="R_3Qw7EAyGwQqeyvs3r--13" value="" style="edgeStyle=orthogonalEdgeStyle;rounded=0;orthogonalLoop=1;jettySize=auto;html=1;" parent="1" source="R_3Qw7EAyGwQqeyvs3r--9" target="R_3Qw7EAyGwQqeyvs3r--12" edge="1">
          <mxGeometry relative="1" as="geometry" />
        </mxCell>
        <mxCell id="R_3Qw7EAyGwQqeyvs3r--9" value="temp = (temp * 10) + rem" style="rounded=0;whiteSpace=wrap;html=1;" parent="1" vertex="1">
          <mxGeometry x="342" y="490" width="165.5" height="60" as="geometry" />
        </mxCell>
        <mxCell id="x2WxI0Pkz9Dao_T7ky0A-1" style="edgeStyle=orthogonalEdgeStyle;rounded=0;orthogonalLoop=1;jettySize=auto;html=1;exitX=1;exitY=0.5;exitDx=0;exitDy=0;entryX=1;entryY=0.5;entryDx=0;entryDy=0;" edge="1" parent="1" source="R_3Qw7EAyGwQqeyvs3r--12" target="R_3Qw7EAyGwQqeyvs3r--4">
          <mxGeometry relative="1" as="geometry">
            <Array as="points">
              <mxPoint x="560" y="630" />
              <mxPoint x="560" y="240" />
            </Array>
          </mxGeometry>
        </mxCell>
        <mxCell id="R_3Qw7EAyGwQqeyvs3r--12" value="number /= 10" style="rounded=0;whiteSpace=wrap;html=1;" parent="1" vertex="1">
          <mxGeometry x="342.14" y="600" width="166.74" height="60" as="geometry" />
        </mxCell>
        <mxCell id="R_3Qw7EAyGwQqeyvs3r--17" value="" style="edgeStyle=orthogonalEdgeStyle;rounded=0;orthogonalLoop=1;jettySize=auto;html=1;" parent="1" source="R_3Qw7EAyGwQqeyvs3r--14" target="R_3Qw7EAyGwQqeyvs3r--16" edge="1">
          <mxGeometry relative="1" as="geometry" />
        </mxCell>
        <mxCell id="R_3Qw7EAyGwQqeyvs3r--14" value="temp" style="shape=document;whiteSpace=wrap;html=1;boundedLbl=1;" parent="1" vertex="1">
          <mxGeometry x="140" y="350" width="120" height="80" as="geometry" />
        </mxCell>
        <mxCell id="R_3Qw7EAyGwQqeyvs3r--16" value="END" style="rounded=1;whiteSpace=wrap;html=1;" parent="1" vertex="1">
          <mxGeometry x="140" y="490" width="120" height="60" as="geometry" />
        </mxCell>
      </root>
    </mxGraphModel>
  </diagram>
</mxfile>
